<?xml version="1.0" standalone="no"?><!DOCTYPE svg PUBLIC "-//W3C//DTD SVG 1.1//EN" "http://www.w3.org/Graphics/SVG/1.1/DTD/svg11.dtd"><svg t="1756724194711" class="icon" viewBox="0 0 1044 1024" version="1.1" xmlns="http://www.w3.org/2000/svg" p-id="2549" xmlns:xlink="http://www.w3.org/1999/xlink" width="203.90625" height="200"><path d="M463.245061 17.031837l-2.194285 9.905632c-1.880816 7.899429-7.27249 19.184327-11.284898 30.469225a717.259755 717.259755 0 0 1-44.073796 81.731918 588.653714 588.653714 0 0 0-78.785306 213.786123 521.571265 521.571265 0 0 0-4.263184 124.760816 600.962612 600.962612 0 0 0 22.569796 119.410939c9.717551 32.97698 31.346939 107.436408 42.004898 130.068898a921.516408 921.516408 0 0 0 52.830041-88.335674c12.162612-20.730776 21.190531-44.679837 31.158857-65.933061 9.905633-21.190531 17.805061-44.261878 23.949061-66.392816 6.081306-22.130939 12.852245-43.321469 15.046531-64.323919 2.319673-21.002449 7.962122-41.795918 7.084408-60.060734-0.940408-18.285714-2.507755-35.213061-2.507755-50.155102a189.690776 189.690776 0 0 0-7.021715-38.159674c-4.263184-18.494694-7.460571-30.030367-7.460571-32.726204 0.689633 2.695837 4.325878 13.980735 9.968326 32.036572a188.081633 188.081633 0 0 1 9.027919 36.613224c2.006204 15.109224 7.648653 32.287347 6.269388 51.011918-1.253878 18.745469 2.068898 38.368653-1.253878 61.022041-3.448163 22.569796-4.137796 45.139592-10.657959 67.68849-6.582857 22.569796-11.075918 46.769633-19.623184 70.008163-8.568163 23.196735-16.300408 47.417469-27.146449 69.966368-5.830531 13.604571-11.911837 26.644898-18.306612 39.747918-4.848327 9.048816-9.278694 18.32751-13.291102 27.794286l-4.764735 9.508571c-19.184327 48.274286-20.751673 87.395265-3.552653 116.046367a105.451102 105.451102 0 0 0 84.615837 45.139592 376.205061 376.205061 0 0 0 147.058939-722.505143c6.332082 12.852245 12.914939 25.516408 19.873959 37.929796 1.630041 2.821224 3.072 5.767837 4.325877 8.777143a345.025306 345.025306 0 0 1-170.945306 645.893225 75.650612 75.650612 0 0 1-57.552979-29.842286c-14.921143-25.077551-7.711347-67.270531 21.19053-121.939592a406.465306 406.465306 0 0 0 147.706776-156.274939 433.799837 433.799837 0 0 0 48.274285-143.568979c8.275592-52.516571 6.687347-106.161633-4.722938-158.093061a373.509224 373.509224 0 0 0-62.296817-141.604572 248.372245 248.372245 0 0 0-92.849632-79.997388 118.282449 118.282449 0 0 0-35.045878-10.156408l-1.818122-0.208979c275.079837-20.68898 515.239184 184.612571 537.537306 459.546122 22.31902 274.954449-181.603265 516.284082-456.411429 540.191347C281.077551 1039.694367 38.577633 837.172245 13.10302 562.510367-12.39249 287.84849 188.708571 44.157388 463.245061 17.073633V17.052735zM317.64898 793.558204l-25.077551-39.747918 28.964571-18.557388-8.40098-13.10302a79.495837 79.495837 0 0 0-96.423183-31.346939 344.16849 344.16849 0 0 1 135.481469-485.522286c3.322776-14.607673 8.651755-28.630204 15.861551-41.754122a376.205061 376.205061 0 0 0-176.796735 543.973877 79.830204 79.830204 0 0 0-12.225306 100.477388l8.359184 13.353796 22.569796-14.921143 25.49551 39.497143 26.456816-16.676572-25.49551-39.309061 29.758694-19.184326 25.077551 39.497143 26.394123-16.676572z m-97.990531-69.339428c17.554286-11.284898 40.437551-10.03102 56.675265 3.134693l-77.92849 49.46547a48.775837 48.775837 0 0 1 21.253225-52.662857v0.062694z" fill="#05A500" p-id="2550"></path></svg>